<svg xmlns="http://www.w3.org/2000/svg" xmlns:xlink="http://www.w3.org/1999/xlink" width="500" zoomAndPan="magnify" viewBox="0 0 375 374.999991" height="500" preserveAspectRatio="xMidYMid meet" version="1.0"><defs><g/><clipPath id="2f2a71177e"><path d="M 103.445312 72.273438 L 124.042969 72.273438 L 124.042969 291.347656 L 103.445312 291.347656 Z M 103.445312 72.273438 " clip-rule="nonzero"/></clipPath></defs><g fill="#ffffff" fill-opacity="1"><g transform="translate(25.691306, 322.364079)"><g><path d="M 163.699219 -286.273438 C 74.59375 -286.273438 19.757812 -222.164062 19.757812 -140.316406 C 19.757812 -66.125 66.527344 4.03125 163.296875 4.03125 C 260.066406 4.03125 306.03125 -66.527344 306.433594 -140.316406 C 306.835938 -214.90625 259.257812 -285.871094 163.699219 -286.273438 Z M 271.355469 -140.316406 C 271.355469 -84.671875 237.890625 -29.03125 163.699219 -29.03125 C 89.511719 -29.03125 54.835938 -83.058594 54.835938 -140.316406 C 54.835938 -202.003906 91.929688 -254.019531 163.699219 -254.019531 C 237.484375 -253.210938 271.757812 -197.570312 271.355469 -140.316406 Z M 271.355469 -140.316406 "/></g></g></g><g clip-path="url(#2f2a71177e)"><path fill="#ffffff" d="M 103.445312 72.277344 L 124.042969 72.277344 L 124.042969 291.339844 L 103.445312 291.339844 L 103.445312 72.277344 " fill-opacity="1" fill-rule="nonzero"/></g></svg>