<svg xmlns="http://www.w3.org/2000/svg" xmlns:xlink="http://www.w3.org/1999/xlink" width="500" zoomAndPan="magnify" viewBox="0 0 375 374.999991" height="500" preserveAspectRatio="xMidYMid meet" version="1.0"><defs><g/><clipPath id="1ff84e3476"><path d="M 63.667969 131.339844 L 70.976562 131.339844 L 70.976562 209.046875 L 63.667969 209.046875 Z M 63.667969 131.339844 " clip-rule="nonzero"/></clipPath></defs><g fill="#ffffff" fill-opacity="1"><g transform="translate(36.090152, 220.047844)"><g><path d="M 58.066406 -101.542969 C 26.457031 -101.542969 7.007812 -78.800781 7.007812 -49.769531 C 7.007812 -23.453125 23.597656 1.429688 57.921875 1.429688 C 92.246094 1.429688 108.550781 -23.597656 108.691406 -49.769531 C 108.835938 -76.226562 91.960938 -101.398438 58.066406 -101.542969 Z M 96.25 -49.769531 C 96.25 -30.035156 84.378906 -10.296875 58.066406 -10.296875 C 31.75 -10.296875 19.449219 -29.460938 19.449219 -49.769531 C 19.449219 -71.652344 32.609375 -90.101562 58.066406 -90.101562 C 84.238281 -89.816406 96.394531 -70.078125 96.25 -49.769531 Z M 96.25 -49.769531 "/></g></g></g><g clip-path="url(#1ff84e3476)"><path fill="#ffffff" d="M 63.667969 131.339844 L 70.976562 131.339844 L 70.976562 209.042969 L 63.667969 209.042969 L 63.667969 131.339844 " fill-opacity="1" fill-rule="nonzero"/></g><g fill="#ffffff" fill-opacity="1"><g transform="translate(148.217865, 207.099024)"><g><path d="M 2.058594 -21.683594 L 6.230469 -21.683594 L 6.230469 -3.8125 L 1.957031 -3.8125 L 1.957031 0 L 14.578125 0 L 14.578125 -3.8125 L 10.507812 -3.8125 L 10.507812 -14.472656 C 10.507812 -18.59375 13.1875 -21.941406 17.359375 -21.941406 C 21.890625 -21.941406 24.257812 -18.75 24.257812 -14.472656 L 24.257812 -3.8125 L 20.191406 -3.8125 L 20.191406 0 L 32.449219 0 L 32.449219 -3.8125 L 28.429688 -3.8125 L 28.429688 -14.472656 C 28.429688 -18.59375 31.210938 -21.941406 35.382812 -21.941406 C 39.96875 -21.941406 42.027344 -18.851562 42.027344 -14.578125 L 42.027344 -3.8125 L 38.113281 -3.8125 L 38.113281 0 L 50.425781 0 L 50.425781 -3.8125 L 46.199219 -3.8125 L 46.199219 -14.578125 C 46.199219 -21.476562 42.59375 -25.960938 35.488281 -25.960938 C 31.882812 -25.960938 28.378906 -24.257812 26.527344 -20.292969 C 25.238281 -24.363281 22.042969 -25.960938 17.976562 -25.960938 C 15.089844 -25.960938 12 -24.671875 10.507812 -21.683594 L 10.25 -25.445312 L 2.058594 -25.445312 Z M 2.058594 -21.683594 "/></g></g></g><g fill="#ffffff" fill-opacity="1"><g transform="translate(199.25764, 207.099024)"><g><path d="M 5.460938 -21.683594 L 5.460938 8.292969 L 1.75 8.292969 L 1.75 12.105469 L 13.90625 12.105469 L 13.90625 8.292969 L 9.582031 8.292969 L 9.582031 -4.480469 C 11.691406 -0.925781 15.605469 0.566406 19.210938 0.566406 C 26.835938 0.566406 32.140625 -4.636719 32.140625 -12.671875 C 32.140625 -21.53125 26.785156 -25.804688 19.417969 -25.960938 C 15.398438 -25.960938 11.742188 -23.796875 9.683594 -20.449219 L 9.527344 -25.445312 L 1.289062 -25.445312 L 1.289062 -21.683594 Z M 18.953125 -3.296875 C 13.753906 -3.398438 10.09375 -7.261719 10.09375 -12.515625 C 10.09375 -17.71875 13.648438 -21.839844 18.953125 -21.839844 C 24.15625 -21.839844 27.917969 -18.902344 27.917969 -12.566406 C 27.917969 -6.851562 24 -3.296875 18.953125 -3.296875 Z M 18.953125 -3.296875 "/></g></g></g><g fill="#ffffff" fill-opacity="1"><g transform="translate(233.661843, 207.099024)"><g><path d="M 9.890625 -3.8125 L 9.890625 -36.054688 L 1.546875 -36.054688 L 1.546875 -32.292969 L 5.71875 -32.292969 L 5.71875 -3.8125 L 1.390625 -3.8125 L 1.390625 0 L 14.007812 0 L 14.007812 -3.8125 Z M 9.890625 -3.8125 "/></g></g></g><g fill="#ffffff" fill-opacity="1"><g transform="translate(249.215844, 207.099024)"><g><path d="M 5.5625 -33.222656 C 5.5625 -29.511719 11.125 -29.511719 11.125 -33.171875 C 11.125 -36.878906 5.5625 -36.878906 5.5625 -33.222656 Z M 10.402344 -25.445312 L 2.058594 -25.445312 L 2.058594 -21.683594 L 6.179688 -21.683594 L 6.179688 -3.8125 L 1.957031 -3.8125 L 1.957031 0 L 14.523438 0 L 14.523438 -3.8125 L 10.402344 -3.8125 Z M 10.402344 -25.445312 "/></g></g></g><g fill="#ffffff" fill-opacity="1"><g transform="translate(265.233369, 207.099024)"><g><path d="M 13.132812 -25.960938 C 8.242188 -26.011719 2.679688 -23.847656 2.730469 -18.386719 C 2.730469 -12.980469 8.085938 -11.949219 12.980469 -11.28125 C 16.945312 -10.867188 20.085938 -10.042969 20.035156 -7.210938 C 19.933594 -3.863281 15.914062 -3.398438 13.390625 -3.398438 C 11.074219 -3.398438 8.652344 -3.964844 6.542969 -5.046875 L 6.386719 -8.859375 L 2.625 -8.859375 L 2.625 -2.523438 C 6.230469 -0.410156 9.167969 0.515625 13.289062 0.515625 C 19.058594 0.515625 24.054688 -1.800781 24.15625 -7.054688 C 24.257812 -13.441406 17.925781 -14.320312 13.238281 -14.9375 C 10.042969 -15.296875 6.902344 -15.8125 6.851562 -18.386719 C 6.796875 -21.117188 9.632812 -22.40625 13.1875 -22.355469 C 14.730469 -22.355469 17.5625 -21.992188 18.902344 -21.273438 L 19.109375 -17.460938 L 22.714844 -17.460938 L 22.816406 -23.691406 C 19.984375 -25.1875 16.378906 -25.960938 13.132812 -25.960938 Z M 13.132812 -25.960938 "/></g></g></g><g fill="#ffffff" fill-opacity="1"><g transform="translate(291.551553, 207.099024)"><g><path d="M 9.785156 -21.425781 L 9.785156 -36.054688 L 1.441406 -36.054688 L 1.441406 -32.347656 L 5.613281 -32.347656 L 5.613281 -3.707031 L 1.289062 -3.707031 L 1.289062 0 L 13.90625 0 L 13.90625 -3.707031 L 9.835938 -3.707031 L 9.835938 -13.699219 C 9.835938 -18.386719 13.1875 -21.992188 17.925781 -21.992188 C 22.507812 -21.992188 25.082031 -19.210938 25.082031 -14.113281 L 25.082031 -3.707031 L 21.632812 -3.707031 L 21.632812 0 L 33.480469 0 L 33.480469 -3.707031 L 29.253906 -3.707031 L 29.253906 -14.214844 C 29.253906 -21.21875 25.753906 -25.960938 18.59375 -25.960938 C 15.347656 -25.960938 11.949219 -24.722656 9.785156 -21.425781 Z M 9.785156 -21.425781 "/></g></g></g><g fill="#ffffff" fill-opacity="1"><g transform="translate(325.646737, 207.099024)"><g><path d="M 3.140625 -2.316406 C 3.140625 1.390625 8.703125 1.390625 8.703125 -2.265625 C 8.703125 -5.976562 3.140625 -5.976562 3.140625 -2.316406 Z M 3.140625 -2.316406 "/></g></g></g></svg>